<?xml version="1.0" encoding="UTF-8" standalone="no"?>
<!-- Created with Inkscape (http://www.inkscape.org/) -->

<svg
   xmlns:dc="http://purl.org/dc/elements/1.1/"
   xmlns:cc="http://creativecommons.org/ns#"
   xmlns:rdf="http://www.w3.org/1999/02/22-rdf-syntax-ns#"
   xmlns:svg="http://www.w3.org/2000/svg"
   xmlns="http://www.w3.org/2000/svg"
   version="1.1"
   width="744.09448"
   height="1052.3622"
   id="svg2">
  <defs
     id="defs4" />
  <metadata
     id="metadata7">
    <rdf:RDF>
      <cc:Work
         rdf:about="">
        <dc:format>image/svg+xml</dc:format>
        <dc:type
           rdf:resource="http://purl.org/dc/dcmitype/StillImage" />
        <dc:title></dc:title>
      </cc:Work>
    </rdf:RDF>
  </metadata>
  <g
     id="layer1">
    <path
       d="m 367.35713,720.63942 c -13.31669,-2.23964 -21.87702,-4.09312 -25,-5.413 -5.95666,-2.51748 -13.05777,-3.69871 -24.48521,-4.07296 -6.04186,-0.19787 -15.94186,-1.02289 -22,-1.83336 -11.95758,-1.59972 -48.7737,-3.28135 -79.01479,-3.60912 -10.45,-0.11326 -22.72854,-0.27022 -27.28565,-0.34879 l -8.28564,-0.14286 -3.85978,-4.18021 c -4.47591,-4.84747 -10.63516,-7.12001 -21.56893,-7.95813 -3.85,-0.29512 -11.05,-1.86366 -16,-3.48564 l -9,-2.94905 -9,-9.93754 c -4.95,-5.46565 -10.2626,-11.50221 -11.80578,-13.41459 -5.21054,-6.45713 -5.95581,-13.61085 -2.5769,-24.73518 2.26768,-7.46585 2.08163,-12.62048 -0.64592,-17.89497 -2.03514,-3.93553 -1.86845,-10.23278 0.34316,-12.964 1.54057,-1.90253 3.3511,-2.39297 11.99083,-3.24812 9.35666,-0.92611 10.64842,-0.83509 16.03812,1.1301 10.17156,3.70874 10.4845,3.38199 12.02005,-12.55042 0.84607,-8.77855 1.54466,-11.33751 5.05043,-18.5 5.11504,-10.4503 23.23228,-36.93727 29.08614,-42.52324 5.3609,-5.11557 33.62051,-24.25966 41.96968,-28.43179 3.31646,-1.65725 11.31749,-4.35979 17.78006,-6.00563 9.91447,-2.52495 13.85916,-3.01554 25.25013,-3.14025 12.48259,-0.13666 14.12742,0.0689 21.82521,2.72778 4.57886,1.58156 13.35386,5.77226 19.5,9.31266 6.14613,3.54039 14.77479,8.24624 19.17479,10.45745 4.4,2.2112 11.07322,6.05201 14.82938,8.53513 9.9055,6.54834 16.31485,8.29965 26.85775,7.33871 6.56777,-0.59862 9.20068,-1.30992 11.70655,-3.16259 1.77816,-1.31464 6.242,-3.4383 9.91966,-4.71923 19.54793,-6.80857 17.89123,-5.85978 24.28847,-13.91003 8.85021,-11.13705 9.39331,-12.4803 8.03238,-19.86635 -0.6238,-3.38551 -1.13419,-8.19182 -1.13419,-10.68069 0,-4.95423 3.46506,-19.26593 7.32368,-30.24893 1.35169,-3.84739 2.73336,-8.20468 3.07037,-9.68287 0.82823,-3.63279 -3.7439,-17.8662 -6.63406,-20.65239 -6.43432,-6.20283 -15.02542,-13.20041 -21.39537,-17.42687 -3.92446,-2.60387 -7.94495,-5.97155 -8.93442,-7.48372 -0.98946,-1.51217 -4.57132,-5.92971 -7.95967,-9.81675 -10.7042,-12.27962 -20.44258,-30.56209 -23.54965,-44.21126 -0.59112,-2.59677 -1.4649,-8.09639 -1.94172,-12.22139 -0.47682,-4.125 -1.56346,-12.45 -2.41475,-18.5 -2.34751,-16.68344 -1.6785,-30.54602 1.57358,-32.60645 2.09366,-1.32648 7.65758,-1.05301 10.66167,0.52403 3.12664,1.64137 9.02129,7.73917 11.6799,12.08242 1.01001,1.65 6.51566,7.45252 12.23478,12.8945 6.86739,6.53459 11.26959,11.62819 12.96393,15 1.41103,2.80802 4.64816,7.52551 7.19362,10.48329 2.54546,2.95779 5.62443,6.55779 6.84215,8 l 2.21403,2.62221 0.036,-3.61045 c 0.0223,-2.23466 -0.90204,-4.99267 -2.4256,-7.23777 -2.60229,-3.83464 -7.71587,-18.1004 -10.09107,-28.15178 -1.91097,-8.08685 -1.84157,-13.96297 0.1889,-15.99344 3.53113,-3.53114 17.36682,1.40794 20.8637,7.44795 1.1,1.89998 4.01175,5.27498 6.47056,7.5 14.70006,13.30235 15.54938,14.42182 19.00153,25.04549 1.78721,5.5 5.83566,14.97793 8.99654,21.06208 9.25597,17.81614 10.17681,20.93745 10.74977,36.43792 0.4429,11.98204 0.77525,13.98235 2.95574,17.78974 5.46931,9.55002 12.07277,14.42798 25.32586,18.70817 8.30038,2.68067 12.77879,5.21503 18.23669,10.32026 7.1913,6.72662 9.13192,11.05147 8.34751,18.60328 -0.34726,3.3432 -0.66947,6.75355 -0.71602,7.57855 -0.16704,2.95991 4.42934,16.54395 6.75694,19.96932 1.30618,1.92222 2.37488,4.08359 2.37488,4.80303 0,0.71945 2.75307,3.87749 6.11793,7.01787 9.38503,8.75892 10.93521,14.5702 6.51712,24.43127 -2.52072,5.6262 -5.72722,9.12171 -9.38505,10.23096 -1.2375,0.37528 -2.25,1.29247 -2.25,2.03821 0,2.44705 -4.90981,7.25487 -9.24628,9.05422 -2.93326,1.21711 -6.65704,1.73064 -11.99577,1.65429 -7.51003,-0.10741 -7.76129,-0.0341 -8.38409,2.44738 -1.18139,4.70706 0.63753,16.70628 5.15106,33.98087 3.95919,15.15297 4.47508,18.36554 4.47508,27.86762 l 0,10.74021 -6.5,13.06576 c -7.58957,15.25592 -7.97547,17.19527 -3.25,16.33284 1.7875,-0.32623 8.76126,-1.03514 15.49725,-1.57535 6.73599,-0.54021 15.96099,-1.84601 20.5,-2.90178 15.54209,-3.61509 14.26981,-3.69315 31.46466,1.9306 8.68345,2.84001 17.83486,6.19379 20.33648,7.45285 9.98527,5.02556 28.59392,30.10677 29.71469,40.05021 0.92968,8.24813 -5.2105,19.40962 -10.67766,19.40962 -3.30274,0 -6.40946,3.1569 -7.99989,8.12908 -0.63845,1.996 -1.93138,4.30882 -2.87318,5.13961 -2.84061,2.5058 -15.40338,4.04506 -26.62293,3.26199 -11.48324,-0.80147 -18.13367,-3.22431 -32.46646,-11.82797 -9.12022,-5.47466 -22.26733,-10.45873 -30.00596,-11.37526 -6.2456,-0.7397 -21.83639,1.92803 -33.71999,5.76981 -13.73618,4.44068 -22.37407,5.75967 -42.53186,6.49449 -18.08766,0.65937 -18.47961,0.62974 -25.94033,-1.96113 -9.75914,-3.38904 -11.33725,-3.41003 -10.5165,-0.13988 0.34383,1.36991 0.10144,4.57052 -0.53862,7.11246 -0.94056,3.73528 -1.75891,4.86268 -4.26673,5.87803 -3.69538,1.49616 -28.20295,2.51523 -34.60297,1.43886 z m 29.07837,-2.93495 c 2.94325,-0.55818 5.77557,-1.43908 6.29406,-1.95757 0.51849,-0.51849 0.99546,-3.9993 1.05992,-7.73514 l 0.11721,-6.79243 4.64992,0.23491 c 2.55746,0.1292 7.04631,1.23692 9.97522,2.4616 4.77125,1.99502 6.84928,2.20813 19.97328,2.0483 17.85567,-0.21745 33.35842,-2.40385 44.2057,-6.23447 11.66703,-4.12011 31.58249,-7.26244 38.65626,-6.09932 10.6959,1.7587 22.94851,6.73624 33.49006,13.60511 2.75,1.7919 6.125,3.58513 7.5,3.98495 1.375,0.39983 4.075,1.68815 6,2.86294 3.1854,1.94399 4.90091,2.13353 19.0856,2.10871 17.94614,-0.0314 19.75124,-0.64707 21.78336,-7.42968 1.52018,-5.07393 4.31662,-8.04305 7.57528,-8.04305 3.72008,0 7.50067,-3.92943 9.52023,-9.89505 2.27826,-6.72979 1.791,-8.57618 -5.47764,-20.75649 -6.33149,-10.6099 -14.88555,-20.35163 -20.88699,-23.78699 -2.25491,-1.29077 -11.29033,-4.72533 -20.07871,-7.63235 l -15.97888,-5.28551 -8.52112,1.83658 c -12.58252,2.71194 -23.84311,4.40368 -29.72191,4.4653 -2.86043,0.03 -7.44431,0.53566 -10.1864,1.12373 -3.66884,0.78683 -5.55576,0.76409 -7.14435,-0.0861 -3.12085,-1.67022 -2.0451,-5.99162 5.1067,-20.5142 l 5.92483,-12.03109 0,-10.87097 c 0,-9.25894 -0.50779,-12.73908 -3.42436,-23.46891 -1.88339,-6.92887 -3.97376,-15.29795 -4.64526,-18.59795 -1.70192,-8.36392 -1.77268,-21.05382 -0.12656,-22.69784 0.85867,-0.85758 4.10215,-1.30216 9.5,-1.30216 9.91736,0 15.09711,-2.23404 18.29789,-7.89193 1.15594,-2.04331 3.63094,-4.47852 5.5,-5.41159 2.56056,-1.27827 4.22401,-3.38385 6.74789,-8.54142 l 3.3496,-6.84494 -1.68806,-4.42012 c -1.09052,-2.85548 -3.42289,-5.88296 -6.58893,-8.5526 -5.03483,-4.24544 -10.95247,-13.66507 -13.33963,-21.23389 -4.03644,-12.79805 -3.99743,-12.53237 -2.73658,-18.63679 1.42993,-6.92301 0.41673,-10.32002 -4.87602,-16.34813 -4.85019,-5.52406 -10.40486,-8.94526 -20.46998,-12.60772 -4.95,-1.80119 -10.26438,-3.91594 -11.80974,-4.69945 -4.35144,-2.20622 -10.23294,-7.92366 -13.68505,-13.3033 -3.01539,-4.69907 -3.16699,-5.45385 -3.95633,-19.69722 -0.92935,-16.76989 -1.40075,-18.41999 -9.92136,-34.72871 -3.27394,-6.26644 -7.44563,-16.04847 -9.2704,-21.73786 -3.5416,-11.04215 -4.23945,-11.9862 -18.38606,-24.87253 -2.73409,-2.4905 -5.87106,-6.06845 -6.97106,-7.95099 -2.55747,-4.37685 -6.84828,-6.85418 -12.51631,-7.22638 l -4.48369,-0.29443 0.0719,6.6053 c 0.0847,7.77513 6.43042,28.70797 10.04461,33.13438 1.37638,1.6857 2.49818,4.83043 2.91598,8.17435 1.2993,10.39932 -1.89935,10.21433 -11.48205,-0.66403 -3.99707,-4.5375 -8.39318,-10.60597 -9.76913,-13.48548 -1.7462,-3.65434 -5.86602,-8.51101 -13.64155,-16.0814 -6.12689,-5.96526 -12.33226,-12.66454 -13.78971,-14.88729 -2.8339,-4.32196 -7.96144,-8.64232 -11.54894,-9.73092 -1.52694,-0.46333 -2.82562,-0.0405 -4.25,1.38394 -1.79787,1.79787 -2.04352,3.2551 -1.98933,11.80115 0.0591,9.32615 0.40734,13.20612 2.88573,32.15576 2.50457,19.14975 6.78263,31.08516 16.57835,46.25214 7.48682,11.59204 20.11543,25.52315 27.9741,30.85931 3.85,2.61421 8.125,5.98363 9.5,7.4876 1.375,1.50397 4.17468,3.8032 6.2215,5.10939 4.1383,2.64089 5.6508,5.10136 8.70002,14.15282 2.92406,8.67996 2.62959,12.73722 -1.89041,26.04649 -5.33479,15.70841 -7.03006,24.3805 -5.99876,30.68649 0.44975,2.75 1.13461,6.90436 1.52193,9.23191 0.63896,3.83983 0.32497,4.81264 -3.38911,10.5 -7.45486,11.41561 -11.89135,15.56836 -19.66517,18.40747 -3.85,1.40607 -9.39885,3.43009 -12.33077,4.49782 -2.93192,1.06773 -7.02623,3.06333 -9.09846,4.43466 -3.14978,2.08443 -5.40307,2.59298 -13.73938,3.10085 -11.79903,0.71882 -17.55166,-0.75582 -26.47238,-6.78601 -3.10254,-2.09724 -12.10254,-7.29663 -20,-11.5542 -36.66076,-19.76406 -40.07094,-20.94068 -57.85897,-19.96324 -13.21989,0.72643 -28.18647,4.12562 -37.63706,8.54808 -8.03839,3.76162 -36.48744,22.94555 -42.15917,28.42903 -2.36293,2.2845 -7.26327,8.65363 -10.88964,14.15363 -3.62637,5.5 -8.72572,12.925 -11.33189,16.5 -7.34714,10.0784 -10.55615,18.57334 -11.87081,31.42465 -1.53197,14.97552 -3.5586,16.8845 -13.43205,12.65224 -5.54193,-2.37555 -8.5187,-2.69346 -16.17938,-1.72794 -9.90119,1.24792 -10.26403,1.40604 -11.44619,4.98802 -0.91842,2.78282 -0.7687,4.07164 0.90033,7.75045 2.42102,5.33631 2.6566,13.93011 0.54586,19.91258 -2.06899,5.86414 -1.94253,14.82677 0.25527,18.09257 0.9596,1.42592 2.64473,3.94198 3.74473,5.59126 1.1,1.64928 5.825,7.0502 10.5,12.00204 8.11059,8.59089 8.8665,9.12475 16.5,11.65322 4.4,1.45743 9.35,2.70707 11,2.77697 12.80303,0.54241 22.84246,3.81191 27.5,8.95581 l 3.5,3.86549 45,1.09596 c 24.75,0.60278 50.175,1.49188 56.5,1.97578 48.97069,3.74657 53.84109,4.33107 61,7.32072 1.925,0.8039 6.82787,1.97279 10.89527,2.59752 4.0674,0.62473 8.1174,1.55797 9,2.07386 2.16079,1.263 24.49928,1.2515 31.1831,-0.0161 z"
       id="path2996"
       style="fill:#000000" />
  </g>
</svg>
